<?xml version="1.0" encoding="utf-8"?>
<!-- Generator: Adobe Illustrator 21.1.0, SVG Export Plug-In . SVG Version: 6.00 Build 0)  -->
<svg version="1.1" id="Layer_1" xmlns="http://www.w3.org/2000/svg" xmlns:xlink="http://www.w3.org/1999/xlink" x="0px" y="0px"
	 viewBox="0 0 64 64" style="enable-background:new 0 0 64 64;" xml:space="preserve">
<style type="text/css">
	.st0{fill:#ACBDC5;}
	.st1{fill:#597380;}
	.st2{fill-rule:evenodd;clip-rule:evenodd;fill:#FACC2E;}
	.st3{fill-rule:evenodd;clip-rule:evenodd;fill:#FFF200;}
	.st4{fill:#FFFFFF;}
	.st5{fill:#314A52;}
</style>
<g id="Chess-Timer">
	<path class="st0" d="M2,24c0-3.3,2.7-6,6-6h48c3.3,0,6,2.7,6,6v20c0,3.3-2.7,6-6,6H8c-3.3,0-6-2.7-6-6V24z"/>
	<path class="st1" d="M8,16c-4.4,0-8,3.6-8,8v20c0,4.4,3.6,8,8,8h44v-3h9V32h-1c0,6.6-17.9,12-40,12c-8.8,0-16-1.8-16-4v0l0,0V24
		c0-2.2,1.8-4,4-4h4v-4H8z"/>
	<path class="st2" d="M52,10v6h-4v-6H52z M12,16v-6h4v6H12z"/>
	<path class="st3" d="M56,12H44V8h12V12z M8,12V8h12v4H8z"/>
	<path class="st4" d="M28,34c0,5.5-4.5,10-10,10c-5.5,0-10-4.5-10-10c0-5.5,4.5-10,10-10C23.5,24,28,28.5,28,34z M46,24
		c-5.5,0-10,4.5-10,10c0,5.5,4.5,10,10,10c5.5,0,10-4.5,10-10C56,28.5,51.5,24,46,24z"/>
	<path class="st5" d="M12,16h44c4.4,0,8,3.6,8,8v20c0,4.4-3.6,8-8,8v4h-8v-4h4v-4h4c2.2,0,4-1.8,4-4V24c0-2.2-1.8-4-4-4H12V16z
		 M16,56v-4H8v4H16z M16,33.8c0,0.1,0,0.1,0,0.2c0,0.6,0.3,1.2,0.8,1.6l0,0l4.6,3.2c0.2,0.1,0.4,0.2,0.6,0.2c0.6,0,1-0.4,1-1
		c0-0.2-0.1-0.4-0.2-0.6l0,0l-2.9-4.2L19,25.9c-0.1-0.5-0.5-0.9-1-0.9c-0.5,0-0.9,0.4-1,0.9L16,33.8L16,33.8z M46,36
		c0.7,0,1.2-0.3,1.6-0.8l0.3-0.4l2.9-4.2l0,0c0.1-0.2,0.2-0.4,0.2-0.6c0-0.6-0.4-1-1-1c-0.2,0-0.4,0.1-0.6,0.2l-1.8,1.3L47,25.9
		c-0.1-0.5-0.5-0.9-1-0.9c-0.5,0-0.9,0.4-1,0.9l-1,7.8c0,0,0,0,0,0.1c0,0.1,0,0.1,0,0.2c0,0.6,0.3,1.2,0.8,1.6c0,0,0,0,0,0
		C45.1,35.9,45.6,36,46,36z"/>
</g>
</svg>
